# xmcd
#
# Track frame offsets: 
#        150
#        12716
#        29117
#        42352
#        66945
#        77865
#        91514
#        108956
#        122375
#        137285
#        150924
#        161386
#        175828
#
# Disc length: 2387 seconds
#
# Revision: 1
# Processed by: cddbd v1.5.2PL0 Copyright (c) Steve Scherf et al.
# Submitted via: ExactAudioCopy v1.1
#
DISCID=9609510d
DTITLE=Commander Cody and his Lost Planet Airmen - Texas Roadhouse Favor
DTITLE=ites
DYEAR=2005
DGENRE=Country
TTITLE0=Blue Suede Shoes (Live)
TTITLE1=Down And Out (Live)
TTITLE2=Ain't Nothin' Shakin' (But The Leaves On The Trees) (Live)
TTITLE3=Milk Cow Blues (Live)
TTITLE4=What Made Milwaukee Famous (Live)
TTITLE5=Hard Headed Woman (Live)
TTITLE6=Beat Me Daddy, Eight To The Bar (Live)
TTITLE7=Wine, Wine, Wine (Live)
TTITLE8=Truck Drivin' Man (Live) (Live)
TTITLE9=Hot Rod Lincoln (Live)
TTITLE10=Lawdy Miss Clawdy (Live)
TTITLE11=Hey, Hey, Hey (Live)
TTITLE12=Jailhouse Rock (Live)
EXTD=
EXTT0=
EXTT1=
EXTT2=
EXTT3=
EXTT4=
EXTT5=
EXTT6=
EXTT7=
EXTT8=
EXTT9=
EXTT10=
EXTT11=
EXTT12=
PLAYORDER=
